<!DOCTYPE svg PUBLIC "-//W3C//DTD SVG 1.1//EN" "http://www.w3.org/Graphics/SVG/1.1/DTD/svg11.dtd">

<!-- Uploaded to: SVG Repo, www.svgrepo.com, Transformed by: SVG Repo Mixer Tools -->
<svg fill="#0F84F6" height="70px" width="70px" version="1.1" id="Layer_1" xmlns="http://www.w3.org/2000/svg" xmlns:xlink="http://www.w3.org/1999/xlink" viewBox="0 0 508.236 508.236" xml:space="preserve">

<g id="SVGRepo_bgCarrier" stroke-width="0"/>

<g id="SVGRepo_tracerCarrier" stroke-linecap="round" stroke-linejoin="round"/>

<g id="SVGRepo_iconCarrier"> <g> <g> <path d="M306.627,195.319l159.356-63.347V0H42.252v131.971l159.356,63.347v58.422h38.593l-22.987,70.74H97.8l96.606,70.188 l-36.894,113.567l96.606-70.188l96.606,70.188l-36.894-113.567l96.606-70.188H291.022l-22.987-70.74h38.593V195.319z M61.945,118.606V19.692h384.346v98.913L254.118,195L61.945,118.606z M276.714,344.173h73.115l-59.154,42.976l22.596,69.538 l-59.154-42.976l-59.154,42.976l22.596-69.538l-59.154-42.976h73.115l22.596-69.538L276.714,344.173z M286.935,234.048H221.3 v-30.901l32.817,13.046l32.817-13.046V234.048z"/> </g> </g> </g>

</svg>