<!DOCTYPE svg PUBLIC "-//W3C//DTD SVG 1.1//EN" "http://www.w3.org/Graphics/SVG/1.1/DTD/svg11.dtd">

<!-- Uploaded to: SVG Repo, www.svgrepo.com, Transformed by: SVG Repo Mixer Tools -->
<svg fill="#0F84F6" width="70px" height="70px" viewBox="0 0 1000 1000" version="1.1" xmlns="http://www.w3.org/2000/svg" xmlns:xlink="http://www.w3.org/1999/xlink" enable-background="new 0 0 1000 1000" xml:space="preserve">

<g id="SVGRepo_bgCarrier" stroke-width="0"/>

<g id="SVGRepo_tracerCarrier" stroke-linecap="round" stroke-linejoin="round"/>

<g id="SVGRepo_iconCarrier"> <metadata> Svg Vector Icons : http://www.onlinewebfonts.com/icon </metadata> <g> <g transform="translate(0.000000,511.000000) scale(0.100000,-0.100000)"> <path d="M3467.3,4417.9c-1104.9-425.7-1534.6-600-1560.4-633.7c-35.6-43.6-37.6-136.6-29.7-2710.9l5.9-2665.3l45.5-198c97-437.6,241.6-780.2,477.2-1136.6c65.3-101,118.8-188.1,114.8-190.1c-4-4-417.8-152.5-922.8-332.7c-504.9-180.2-934.7-342.6-956.4-362.4C606-3843.4,604-3877.1,604-4279c0-405.9,2-433.7,39.6-471.3c55.4-55.4,160.4-51.5,213.9,6c41.6,43.5,43.6,65.3,43.6,382.1v334.7l922.8,330.7l924.7,328.7l176.2-156.4c417.8-368.3,906.9-613.8,1467.3-734.6c172.3-37.6,263.4-43.6,607.9-43.6c344.6,0,435.6,6,607.9,43.6c560.4,120.8,1049.5,366.3,1467.3,734.6l178.2,158.4l758.4-251.5c417.8-138.6,831.7-275.3,918.8-303l158.4-49.5l9.9-382.2c9.9-348.5,13.9-384.1,47.5-409.9c57.4-41.6,162.4-35.7,209.9,11.9c37.6,37.6,39.6,65.4,39.6,493.1c0,402-3.9,457.4-33.7,493.1c-25.7,29.7-314.8,132.6-956.4,342.5c-506.9,164.4-924.7,303-928.7,306.9c-3.9,2,49.5,87.1,116.8,188.1c227.7,342.6,380.2,705,479.2,1136.6l43.6,198l5.9,2712.9c5.9,2051.5,2,2722.7-15.8,2756.4c-29.7,53.5,59.4,19.8-1433.7,562.4c-685.1,251.5-1316.8,481.2-1402,512.9c-85.1,33.7-184.2,57.4-217.8,57.4C5017.8,5008,4305,4742.7,3467.3,4417.9z M6441.6,4196.1l1370.3-501v-370.3v-372.3H5000H2188.1l4,320.8l5.9,320.8l1415.8,548.5c778.2,301,1425.7,548.5,1435.6,550.5C5061.4,4695.2,5687.1,4471.4,6441.6,4196.1z M7811.9,2368.4v-267.3l-2805.9,4l-2807.9,5.9l-5.9,263.4l-5.9,261.4H5000h2811.9V2368.4z M7704.9,1651.6c-110.9-322.8-283.2-590.1-560.4-859.4c-237.6-231.7-398-346.5-691.1-495c-558.4-283.2-1198-402-1800-334.7c-695,77.2-1265.3,332.7-1714.8,766.3c-289.1,279.2-493.1,580.2-619.8,922.8l-51.5,132.7h2740.6h2742.6L7704.9,1651.6z M2503,719c324.8-378.2,857.4-720.8,1407.9-903C4996-544.4,6223.7-340.4,7122.8,350.6c231.7,180.2,489.1,463.4,663.4,732.7c19.8,29.7,23.8-120.8,19.8-734.6l-3.9-772.3l-65.4-166.3c-106.9-283.2-271.3-534.7-560.4-865.3c-211.9-241.6-788.1-762.4-841.6-760.4c-9.9,0-47.5,45.6-85.2,101c-110.9,162.4-374.2,398-550.5,489.1c-239.6,124.8-425.7,168.3-699,168.3c-334.6-2-598-83.2-871.3-269.3c-128.7-89.1-334.6-304.9-425.7-445.5c-55.4-87.1-91.1-122.8-120.8-122.8c-23.8,0-108.9,33.7-188.1,73.3c-405.9,203.9-837.6,869.3-1134.6,1754.4l-71.3,213.8v705v704.9l95-148.5C2336.7,926.9,2435.7,798.2,2503,719z M7782.1-1627.5c-130.7-782.2-562.4-1459.4-1207.9-1895.1c-712.9-481.2-1627.7-611.9-2437.6-346.5c-1011.9,330.7-1750.5,1192.1-1918.8,2237.6c-15.8,97.1-29.7,245.6-29.7,326.7l2,148.5l108.9-213.8c59.4-118.8,152.5-287.1,207.9-376.3c340.6-548.5,766.3-863.4,1168.3-865.4c126.7,0,134.7,6,235.6,188.1c87.1,150.5,320.8,396,463.4,483.1c61.4,35.7,172.3,89.1,245.5,116.9c116.8,45.5,162.4,51.5,380.2,51.5c217.8,0,263.4-5.9,380.2-51.5c73.3-27.7,184.2-81.2,245.5-116.9c140.6-85.1,354.5-310.9,443.6-473.2c142.6-255.4,190.1-261.4,457.4-57.4c487.1,372.3,924.7,811.9,1186.1,1192.1l89.1,128.7l5.9-140.6C7811.9-1370.1,7800-1520.6,7782.1-1627.5z"/> <path d="M4879.2,4291.2c-186.1-65.4-346.5-223.8-415.8-405.9c-59.4-156.4-47.5-384.2,29.7-532.7c71.3-138.6,188.1-253.5,326.7-316.8c91.1-43.6,140.6-53.5,279.2-53.5c144.6,0,184.2,7.9,279.2,55.4c132.7,63.4,281.2,215.8,340.6,346.5c65.3,138.6,61.4,411.9-5.9,548.5c-71.3,146.5-225.7,293.1-362.4,342.6C5217.8,4324.9,4994.1,4332.8,4879.2,4291.2z M5299,3952.6c99-65.3,156.4-178.2,156.4-306.9c0-334.6-405.9-485.1-627.7-231.7c-55.4,63.4-104.9,178.2-104.9,241.6c0,59.4,47.5,174.3,93.1,229.7C4936.6,4027.8,5142.6,4057.5,5299,3952.6z"/> <path d="M4469.3-2360.2c-95.1-99-29.7-251.5,104.9-251.5c43.6,0,85.1,15.9,108.9,39.6c23.8,23.8,39.6,65.4,39.6,108.9C4722.8-2326.6,4562.4-2261.2,4469.3-2360.2z"/> <path d="M5316.8-2354.3c-23.8-23.8-39.6-65.3-39.6-108.9c0-43.6,15.8-85.1,39.6-108.9c23.8-23.7,65.3-39.6,108.9-39.6c89.1,0,148.5,57.4,148.5,144.6C5574.3-2336.5,5407.9-2263.2,5316.8-2354.3z"/> <path d="M4075.3-2754.3c-65.3-31.7-95-120.8-65.3-192.1c47.5-118.8,221.8-124.7,275.2-9.9c39.6,91.1,17.8,154.5-71.3,202C4162.4-2726.5,4132.7-2726.5,4075.3-2754.3z"/> <path d="M4926.7-2754.3c-108.9-53.5-99-225.7,15.8-273.3c176.2-73.2,299,196,124.8,275.3C5007.9-2726.5,4984.2-2726.5,4926.7-2754.3z"/> <path d="M5768.3-2762.2c-106.9-57.4-97-206,15.8-259.4c63.4-31.7,75.3-31.7,122.8-4c83.2,45.6,114.8,118.8,85.1,190.1c-23.8,57.4-93.1,106.9-146.5,104.9C5831.7-2732.5,5798-2744.4,5768.3-2762.2z"/> <path d="M6629.7-2750.3c-85.1-33.7-112.9-160.4-49.5-235.6c55.4-67.3,146.5-73.3,211.9-17.8c75.2,67.3,77.2,162.4,2,227.7C6736.6-2728.5,6701-2722.6,6629.7-2750.3z"/> <path d="M4465.4-3205.8c-55.4-55.4-51.5-160.4,5.9-213.8c99-93.1,251.5-27.7,251.5,104.9c0,91.1-57.4,148.5-148.5,148.5C4530.7-3166.2,4489.1-3182,4465.4-3205.8z"/> <path d="M5316.8-3205.8c-23.8-23.8-39.6-65.3-39.6-108.9c0-136.6,160.4-202,253.5-102.9c95.1,99,29.7,251.5-104.9,251.5C5382.2-3166.2,5340.6-3182,5316.8-3205.8z"/> <path d="M6168.3-3205.8c-23.8-23.8-39.6-65.3-39.6-108.9c0-89.1,57.4-148.5,144.6-148.5c134.6,0,203.9,164.4,106.9,253.5C6320.8-3154.3,6221.8-3152.3,6168.3-3205.8z"/> </g> </g> </g>

</svg>